HIERARCHY
ROOT Root
{
  OFFSET 0.0 0.0 0.0
  CHANNELS 6 Xposition Yposition Zposition Zrotation Yrotation Xrotation
  JOINT Hips
  {
    OFFSET 0.0 100.0 0.0
    CHANNELS 6 Xposition Yposition Zposition Zrotation Yrotation Xrotation
    JOINT Spine1
    {
      OFFSET 5.003913 -0.037094 -0.013727
      CHANNELS 3 Zrotation Yrotation Xrotation
      JOINT Spine2
      {
        OFFSET 7.125363 -1e-06 0.0
        CHANNELS 3 Zrotation Yrotation Xrotation
        JOINT Chest
        {
          OFFSET 7.594027 1e-06 0.0
          CHANNELS 3 Zrotation Yrotation Xrotation
          JOINT Neck1
          {
            OFFSET 26.313086 -0.460272 -0.181672
            CHANNELS 3 Zrotation Yrotation Xrotation
            JOINT Neck2
            {
              OFFSET 8.045911 0.0 0.0
              CHANNELS 3 Zrotation Yrotation Xrotation
              JOINT Head
              {
                OFFSET 6.432774 0.0 0.0
                CHANNELS 3 Zrotation Yrotation Xrotation
                JOINT HeadEnd
                {
                  OFFSET 16.169773 0.06451 0.00362
                  CHANNELS 3 Zrotation Yrotation Xrotation
                }
                JOINT Jaw
                {
                  OFFSET 0.108741 3.12938 0.002639
                  CHANNELS 3 Zrotation Yrotation Xrotation
                }
                JOINT LeftEye
                {
                  OFFSET 4.45173 8.166359 3.206392
                  CHANNELS 3 Zrotation Yrotation Xrotation
                }
                JOINT RightEye
                {
                  OFFSET 4.436895 8.135758 -3.222429
                  CHANNELS 3 Zrotation Yrotation Xrotation
                }
              }
            }
          }
          JOINT LeftShoulder
          {
            OFFSET 23.218927 5.195579 1.621656
            CHANNELS 3 Zrotation Yrotation Xrotation
            JOINT LeftArm
            {
              OFFSET 15.902118 2e-06 -2e-06
              CHANNELS 3 Zrotation Yrotation Xrotation
              JOINT LeftForeArm
              {
                OFFSET 28.739307 0.0 -1e-06
                CHANNELS 3 Zrotation Yrotation Xrotation
                JOINT LeftHand
                {
                  OFFSET 27.093981 -4e-06 0.0
                  CHANNELS 3 Zrotation Yrotation Xrotation
                  JOINT LeftHandThumb1
                  {
                    OFFSET 2.276781 3.380274 0.83384
                    CHANNELS 3 Zrotation Yrotation Xrotation
                    JOINT LeftHandThumb2
                    {
                      OFFSET 4.705309 -1e-06 -1e-06
                      CHANNELS 3 Zrotation Yrotation Xrotation
                      JOINT LeftHandThumb3
                      {
                        OFFSET 2.798515 0.0 3e-06
                        CHANNELS 3 Zrotation Yrotation Xrotation
                        JOINT LeftHandThumbEnd
                        {
                          OFFSET 3.180793 4e-06 -4e-06
                          CHANNELS 3 Zrotation Yrotation Xrotation
                        }
                      }
                    }
                  }
                  JOINT LeftHandIndex1
                  {
                    OFFSET 3.247786 2.352677 0.137192
                    CHANNELS 3 Zrotation Yrotation Xrotation
                    JOINT LeftHandIndex2
                    {
                      OFFSET 6.367095 1e-06 0.0
                      CHANNELS 3 Zrotation Yrotation Xrotation
                      JOINT LeftHandIndex3
                      {
                        OFFSET 3.662364 0.0 0.0
                        CHANNELS 3 Zrotation Yrotation Xrotation
                        JOINT LeftHandIndex4
                        {
                          OFFSET 2.329242 4e-06 -4e-06
                          CHANNELS 3 Zrotation Yrotation Xrotation
                          JOINT LeftHandIndexEnd
                          {
                            OFFSET 2.767823 1e-06 0.0
                            CHANNELS 3 Zrotation Yrotation Xrotation
                          }
                        }
                      }
                    }
                  }
                  JOINT LeftHandMiddle1
                  {
                    OFFSET 3.163612 0.945023 -0.406112
                    CHANNELS 3 Zrotation Yrotation Xrotation
                    JOINT LeftHandMiddle2
                    {
                      OFFSET 6.276789 3e-06 0.0
                      CHANNELS 3 Zrotation Yrotation Xrotation
                      JOINT LeftHandMiddle3
                      {
                        OFFSET 4.35652 -1e-06 4e-06
                        CHANNELS 3 Zrotation Yrotation Xrotation
                        JOINT LeftHandMiddle4
                        {
                          OFFSET 2.996877 0.0 8e-06
                          CHANNELS 3 Zrotation Yrotation Xrotation
                          JOINT LeftHandMiddleEnd
                          {
                            OFFSET 2.323256 3e-06 -4e-06
                            CHANNELS 3 Zrotation Yrotation Xrotation
                          }
                        }
                      }
                    }
                  }
                  JOINT LeftHandRing1
                  {
                    OFFSET 2.882606 -0.309162 0.107445
                    CHANNELS 3 Zrotation Yrotation Xrotation
                    JOINT LeftHandRing2
                    {
                      OFFSET 6.033198 0.0 4e-06
                      CHANNELS 3 Zrotation Yrotation Xrotation
                      JOINT LeftHandRing3
                      {
                        OFFSET 4.350578 3e-06 0.0
                        CHANNELS 3 Zrotation Yrotation Xrotation
                        JOINT LeftHandRing4
                        {
                          OFFSET 2.651321 2e-06 -7e-06
                          CHANNELS 3 Zrotation Yrotation Xrotation
                          JOINT LeftHandRingEnd
                          {
                            OFFSET 1.937663 1e-06 -4e-06
                            CHANNELS 3 Zrotation Yrotation Xrotation
                          }
                        }
                      }
                    }
                  }
                  JOINT LeftHandPinky1
                  {
                    OFFSET 2.865315 -1.525436 0.575687
                    CHANNELS 3 Zrotation Yrotation Xrotation
                    JOINT LeftHandPinky2
                    {
                      OFFSET 5.54936 1e-06 -8e-06
                      CHANNELS 3 Zrotation Yrotation Xrotation
                      JOINT LeftHandPinky3
                      {
                        OFFSET 3.070974 0.0 -4e-06
                        CHANNELS 3 Zrotation Yrotation Xrotation
                        JOINT LeftHandPinky4
                        {
                          OFFSET 1.549672 1e-06 0.0
                          CHANNELS 3 Zrotation Yrotation Xrotation
                          JOINT LeftHandPinkyEnd
                          {
                            OFFSET 1.952123 0.0 0.0
                            CHANNELS 3 Zrotation Yrotation Xrotation
                          }
                        }
                      }
                    }
                  }
                }
              }
            }
          }
          JOINT RightShoulder
          {
            OFFSET 23.161716 5.296122 -1.380114
            CHANNELS 3 Zrotation Yrotation Xrotation
            JOINT RightArm
            {
              OFFSET -16.027195 -2e-06 1.1e-05
              CHANNELS 3 Zrotation Yrotation Xrotation
              JOINT RightForeArm
              {
                OFFSET -28.736639 4e-06 2e-06
                CHANNELS 3 Zrotation Yrotation Xrotation
                JOINT RightHand
                {
                  OFFSET -27.133619 6e-06 0.0
                  CHANNELS 3 Zrotation Yrotation Xrotation
                  JOINT RightHandThumb1
                  {
                    OFFSET -2.274328 -3.351035 -0.83067
                    CHANNELS 3 Zrotation Yrotation Xrotation
                    JOINT RightHandThumb2
                    {
                      OFFSET -4.703594 -3e-06 2e-06
                      CHANNELS 3 Zrotation Yrotation Xrotation
                      JOINT RightHandThumb3
                      {
                        OFFSET -2.794935 -4e-06 -3e-06
                        CHANNELS 3 Zrotation Yrotation Xrotation
                        JOINT RightHandThumbEnd
                        {
                          OFFSET -3.183852 4e-06 1e-06
                          CHANNELS 3 Zrotation Yrotation Xrotation
                        }
                      }
                    }
                  }
                  JOINT RightHandIndex1
                  {
                    OFFSET -3.253496 -2.33755 -0.127667
                    CHANNELS 3 Zrotation Yrotation Xrotation
                    JOINT RightHandIndex2
                    {
                      OFFSET -6.344434 0.0 0.0
                      CHANNELS 3 Zrotation Yrotation Xrotation
                      JOINT RightHandIndex3
                      {
                        OFFSET -3.654871 0.0 -8e-06
                        CHANNELS 3 Zrotation Yrotation Xrotation
                        JOINT RightHandIndex4
                        {
                          OFFSET -2.327586 -1e-06 0.0
                          CHANNELS 3 Zrotation Yrotation Xrotation
                          JOINT RightHandIndexEnd
                          {
                            OFFSET -2.770001 3e-06 8e-06
                            CHANNELS 3 Zrotation Yrotation Xrotation
                          }
                        }
                      }
                    }
                  }
                  JOINT RightHandMiddle1
                  {
                    OFFSET -3.168223 -0.944764 0.411762
                    CHANNELS 3 Zrotation Yrotation Xrotation
                    JOINT RightHandMiddle2
                    {
                      OFFSET -6.266691 -1e-06 -4e-06
                      CHANNELS 3 Zrotation Yrotation Xrotation
                      JOINT RightHandMiddle3
                      {
                        OFFSET -4.348901 0.0 0.0
                        CHANNELS 3 Zrotation Yrotation Xrotation
                        JOINT RightHandMiddle4
                        {
                          OFFSET -3.00024 2e-06 -4e-06
                          CHANNELS 3 Zrotation Yrotation Xrotation
                          JOINT RightHandMiddleEnd
                          {
                            OFFSET -2.321477 -4e-06 -4e-06
                            CHANNELS 3 Zrotation Yrotation Xrotation
                          }
                        }
                      }
                    }
                  }
                  JOINT RightHandRing1
                  {
                    OFFSET -2.885654 0.293261 -0.119232
                    CHANNELS 3 Zrotation Yrotation Xrotation
                    JOINT RightHandRing2
                    {
                      OFFSET -6.032835 -1e-06 -4e-06
                      CHANNELS 3 Zrotation Yrotation Xrotation
                      JOINT RightHandRing3
                      {
                        OFFSET -4.33881 0.0 -4e-06
                        CHANNELS 3 Zrotation Yrotation Xrotation
                        JOINT RightHandRing4
                        {
                          OFFSET -2.654903 -4e-06 -4e-06
                          CHANNELS 3 Zrotation Yrotation Xrotation
                          JOINT RightHandRingEnd
                          {
                            OFFSET -1.935122 0.0 4e-06
                            CHANNELS 3 Zrotation Yrotation Xrotation
                          }
                        }
                      }
                    }
                  }
                  JOINT RightHandPinky1
                  {
                    OFFSET -2.866241 1.503904 -0.60527
                    CHANNELS 3 Zrotation Yrotation Xrotation
                    JOINT RightHandPinky2
                    {
                      OFFSET -5.553177 -2e-06 0.0
                      CHANNELS 3 Zrotation Yrotation Xrotation
                      JOINT RightHandPinky3
                      {
                        OFFSET -3.062664 -1e-06 -4e-06
                        CHANNELS 3 Zrotation Yrotation Xrotation
                        JOINT RightHandPinky4
                        {
                          OFFSET -1.546529 2e-06 4e-06
                          CHANNELS 3 Zrotation Yrotation Xrotation
                          JOINT RightHandPinkyEnd
                          {
                            OFFSET -1.952341 0.0 -4e-06
                            CHANNELS 3 Zrotation Yrotation Xrotation
                          }
                        }
                      }
                    }
                  }
                }
              }
            }
          }
        }
      }
    }
    JOINT LeftLeg
    {
      OFFSET -8.443107 2.567604 10.043214
      CHANNELS 3 Zrotation Yrotation Xrotation
      JOINT LeftShin
      {
        OFFSET 43.229198 1e-06 -1e-06
        CHANNELS 3 Zrotation Yrotation Xrotation
        JOINT LeftFoot
        {
          OFFSET 42.298611 1e-06 1e-06
          CHANNELS 3 Zrotation Yrotation Xrotation
          JOINT LeftToeBase
          {
            OFFSET 14.165858 1e-06 0.0
            CHANNELS 3 Zrotation Yrotation Xrotation
            JOINT LeftToeEnd
            {
              OFFSET 6.7141 -0.234461 0.0
              CHANNELS 3 Zrotation Yrotation Xrotation
            }
          }
        }
      }
    }
    JOINT RightLeg
    {
      OFFSET -8.303923 2.592729 -10.047278
      CHANNELS 3 Zrotation Yrotation Xrotation
      JOINT RightShin
      {
        OFFSET -43.369682 0.0 1e-06
        CHANNELS 3 Zrotation Yrotation Xrotation
        JOINT RightFoot
        {
          OFFSET -42.260784 4e-06 2e-06
          CHANNELS 3 Zrotation Yrotation Xrotation
          JOINT RightToeBase
          {
            OFFSET -14.222245 -2e-06 -1e-06
            CHANNELS 3 Zrotation Yrotation Xrotation
            JOINT RightToeEnd
            {
              OFFSET -6.660062 0.232574 -2e-06
              CHANNELS 3 Zrotation Yrotation Xrotation
            }
          }
        }
      }
    }
  }
}
MOTION
Frames: 4
Frame Time: 0.03333333333333333
0.0 0.0 0.0 0.0 -0.0 0.0 8.450262 50.208527 41.957439 91.877533 -6.897437 83.572639 7.097877 -1.123071 -0.614929 -9.093805 -0.595407 -0.317086 19.45789 0.720178 -2.225738 40.366745 -3.320604 2.063123 -2.629541 -0.303101 1.700723 -29.034025 -1.194105 1.492291 6e-06 -0.0 0.0 -0.118417 -0.034245 0.038894 0.061263 -0.02981 0.062385 0.080221 -0.045017 0.019639 -86.925247 -81.38311 102.815689 45.668163 -55.325497 17.639713 59.866657 0.112929 1.075495 2.803357 -10.058314 -6.800558 17.636623 -26.322731 52.411182 -19.466654 -14.395598 29.410385 1e-06 -8.77482 -2e-06 17.079744 -18.769304 6.061708 -0.609775 -1.795653 -3.889325 -4.807087 -11.046809 -2.937849 2e-06 -20.976011 4e-06 -5.019973 -25.033556 -4.031877 7e-06 1e-06 0.0 -10.634531 -5.686968 -3.565585 10.573272 -17.922947 -3.1139 1e-06 -13.821205 4e-06 -0.501784 -31.181498 -4.027012 -12.697358 -60.486607 8.140551 -13.982706 -7.150196 -2.875041 13.772727 -8.401493 -3.21824 0.347732 -34.211544 0.771662 -0.96303 -17.733366 2.621022 -2e-06 -2e-06 1e-06 -17.346415 -20.095211 -4.201778 21.757555 -1.638378 3.866426 -0.0 -6.338822 1e-06 -1.697592 -22.591736 -6.194002 -0.0 -5e-06 -1e-06 57.936512 -85.96022 136.693604 59.033859 -50.21711 16.496382 49.152596 -1.4077 -0.175106 -20.141882 -6.878273 9.659323 22.182114 -20.375891 49.933319 -16.701811 -16.74353 28.47653 -2e-06 -12.690602 -2e-06 15.608548 -16.687815 2.9009 -0.105919 -1.513856 -4.275883 -5.039042 -5.612872 -2.953557 4e-06 -11.020521 -2e-06 -6.111299 -15.89533 -3.840469 0.0 1e-06 1e-06 -10.283373 -5.680288 -4.34184 11.028294 -11.302402 -2.372631 -1.384269 -14.238578 -6.320122 -0.625437 -26.924191 -3.827603 -4.077595 -49.885761 -3.634125 -13.708527 -7.363475 -3.72094 18.141151 -14.052739 -3.242675 8e-06 -18.787262 -2e-06 -0.429711 -8.456043 2.555503 0.0 2e-06 1e-06 -15.923536 -20.094482 -5.473585 30.41921 -7.190825 1.735926 2e-06 -8.162925 -1e-06 -1.861905 -22.861467 -6.167942 -1e-06 -3e-06 -1e-06 157.591354 -5.609282 -11.931801 136.846481 -0.085362 -0.143121 -119.554337 3.237545 -9.551665 -20.689316 1.77325 2.285446 -1.0 0.0 -0.0 -23.084852 -16.361477 9.088194 134.934158 -0.281092 -0.119874 -120.289207 16.721779 -14.18709 -21.307152 0.873545 1.649406 -1.000002 0.0 0.0 
0.0 0.0 0.0 0.0 -0.0 0.0 8.065764 50.000362 41.043179 91.95726 -6.972011 83.999489 7.670588 -1.047366 -0.562518 -8.906916 -0.559548 -0.215125 20.126162 0.57344 -2.144804 40.97641 -3.346788 2.130259 -2.616705 -0.296803 1.600267 -28.700483 -0.952536 1.34592 6e-06 -0.0 -0.0 -0.122521 -0.052044 0.060103 0.032788 -0.053989 0.080759 0.057812 -0.056635 0.04409 -89.131409 -81.588539 105.175163 47.291336 -54.393852 16.707449 60.34697 -0.040507 1.127342 2.963953 -9.100035 -6.894814 17.636635 -26.322723 52.41119 -19.466663 -14.395594 29.410389 1e-06 -8.774822 -4e-06 17.115562 -18.688944 6.006889 -0.609774 -1.795654 -3.889328 -4.80709 -11.046811 -2.937851 5e-06 -20.976015 0.0 -5.019965 -25.033556 -4.031883 7e-06 1e-06 1e-06 -10.634535 -5.68697 -3.565587 10.573277 -17.922951 -3.113902 3e-06 -13.821205 2e-06 -0.501776 -31.181498 -4.027017 -12.773693 -60.569435 8.180613 -13.982712 -7.150198 -2.875044 13.77273 -8.401493 -3.218243 0.347738 -34.211555 0.771651 -0.963025 -17.733368 2.621019 -0.0 -1e-06 1e-06 -17.34642 -20.095217 -4.201787 21.757557 -1.638377 3.866431 -1e-06 -6.338823 -1e-06 -1.697586 -22.591738 -6.194005 -0.0 -5e-06 -2e-06 60.022366 -86.668686 134.552643 59.473785 -49.130219 17.326807 51.996861 -1.205849 -0.278019 -20.733633 -6.894265 10.737454 22.182125 -20.375898 49.933323 -16.70182 -16.743532 28.476534 -3e-06 -12.690605 -2e-06 15.548676 -16.845608 3.011316 -0.105919 -1.513856 -4.275881 -5.039042 -5.612874 -2.953557 4e-06 -11.020527 -2e-06 -6.1113 -15.895338 -3.840471 1e-06 -1e-06 -0.0 -10.283374 -5.680288 -4.341838 11.028297 -11.302407 -2.372633 -1.384268 -14.238586 -6.320124 -0.625438 -26.924202 -3.827602 -4.147775 -50.167561 -3.590506 -13.708529 -7.363477 -3.720938 18.141155 -14.052746 -3.242678 7e-06 -18.787271 -1e-06 -0.429714 -8.45605 2.555504 1e-06 2e-06 2e-06 -15.923541 -20.094492 -5.473587 30.419224 -7.190831 1.735926 3e-06 -8.162927 -1e-06 -1.8619 -22.861473 -6.167946 -1e-06 -4e-06 -0.0 155.981873 -6.179276 -11.128257 138.105728 -0.080936 -0.143276 -119.199112 3.784034 -10.038549 -21.254173 1.782447 2.271372 -1.000002 1e-06 1e-06 -24.061892 -16.314383 8.557636 136.214508 -0.218824 -0.082205 -120.437164 16.496607 -13.641211 -21.194035 0.869201 1.63972 -1.000001 0.0 0.0 
0.0 0.0 0.0 0.0 -0.0 0.0 7.695572 49.692307 40.082695 91.985733 -7.073809 84.328728 8.29781 -0.972507 -0.539285 -8.704958 -0.523533 -0.134952 20.895517 0.497809 -2.074765 41.668606 -3.281959 2.235938 -2.612184 -0.316636 1.525729 -28.308334 -0.747989 1.21159 9e-06 -0.0 -0.0 -0.132583 -0.067465 0.075524 0.011852 -0.07293 0.096614 0.040413 -0.068075 0.059061 -89.859657 -81.839928 106.099106 48.912003 -53.445755 15.737945 61.059597 -0.154695 1.182462 3.154391 -8.230712 -7.134639 17.63662 -26.322729 52.411194 -19.46666 -14.395596 29.410393 0.0 -8.774821 -3e-06 17.094458 -18.605928 5.951385 -0.609773 -1.795653 -3.889328 -4.80709 -11.046811 -2.937851 2e-06 -20.976015 2e-06 -5.019969 -25.03356 -4.031882 5e-06 0.0 1e-06 -10.63453 -5.68697 -3.565587 10.573272 -17.922947 -3.113901 1e-06 -13.821205 3e-06 -0.501776 -31.181498 -4.027018 -12.839998 -60.553234 8.15107 -13.982707 -7.150198 -2.875045 13.772727 -8.401489 -3.218244 0.347734 -34.211544 0.771654 -0.963029 -17.733364 2.621021 -0.0 -1e-06 1e-06 -17.346415 -20.095215 -4.201781 21.757557 -1.638376 3.866426 -0.0 -6.338822 1e-06 -1.697588 -22.59174 -6.194002 -1e-06 -4e-06 -1e-06 61.631565 -87.195229 132.964233 60.00964 -48.192173 17.889177 54.463356 -1.014337 -0.376247 -21.371828 -6.787809 11.76838 22.182116 -20.375889 49.933308 -16.701811 -16.743528 28.476522 -2e-06 -12.690601 -1e-06 15.407125 -16.988516 3.106723 -0.105918 -1.513856 -4.275881 -5.039042 -5.612871 -2.953557 3e-06 -11.020524 -1e-06 -6.111298 -15.89533 -3.84047 -0.0 -2e-06 1e-06 -10.283369 -5.680288 -4.341837 11.028295 -11.302404 -2.372633 -1.384269 -14.238577 -6.32012 -0.625435 -26.924189 -3.827601 -4.182708 -50.30357 -3.597125 -13.708523 -7.363475 -3.720938 18.141148 -14.052739 -3.242674 6e-06 -18.787266 -1e-06 -0.429712 -8.456045 2.555503 -1e-06 1e-06 1e-06 -15.923532 -20.094481 -5.473583 30.41921 -7.190829 1.735924 1e-06 -8.162924 0.0 -1.861901 -22.861469 -6.167941 -1e-06 -2e-06 -1e-06 154.323547 -6.872307 -10.390068 139.452637 -0.083707 -0.148233 -118.881531 4.379225 -10.428965 -21.826427 1.788923 2.248 -0.999999 1e-06 -0.0 -25.152155 -16.184296 8.121192 137.614685 -0.166437 -0.04299 -120.636658 16.261442 -13.085525 -21.173063 0.862492 1.627194 -1.000001 0.0 0.0 
0.0 0.0 0.0 0.0 -0.0 0.0 7.34172 49.28577 39.087997 91.990005 -7.148355 84.561378 8.99066 -0.932567 -0.549461 -8.468709 -0.500123 -0.095796 21.75721 0.47309 -1.991957 42.502003 -3.114517 2.356387 -2.610432 -0.34033 1.500588 -27.886644 -0.595432 1.117184 2e-06 -0.0 0.0 -0.14139 -0.075196 0.081087 -0.00299 -0.079903 0.10141 0.02881 -0.075963 0.064823 -88.814384 -82.152695 105.222603 50.318253 -52.453945 15.073192 62.144012 -0.23689 1.216698 3.358617 -7.519272 -7.467258 17.636616 -26.322723 52.411194 -19.46666 -14.395592 29.410389 2e-06 -8.774821 -1e-06 17.061369 -18.524292 5.903317 -0.609776 -1.795654 -3.889328 -4.80709 -11.04681 -2.937853 1e-06 -20.976015 -1e-06 -5.019968 -25.03356 -4.031884 7e-06 1e-06 2e-06 -10.634533 -5.686972 -3.565585 10.573271 -17.922947 -3.113904 0.0 -13.821203 2e-06 -0.501778 -31.181498 -4.02702 -12.84544 -60.481899 8.083561 -13.982712 -7.150198 -2.875041 13.772727 -8.40149 -3.218243 0.347733 -34.211544 0.771652 -0.963027 -17.733366 2.621018 -1e-06 -2e-06 1e-06 -17.34642 -20.095219 -4.20178 21.757559 -1.638375 3.866425 -1e-06 -6.338823 -1e-06 -1.697587 -22.591745 -6.194012 -1e-06 -4e-06 0.0 62.358891 -87.557198 132.303467 60.656754 -47.428394 18.33604 56.578602 -0.795564 -0.441263 -22.061775 -6.540939 12.949047 22.182095 -20.375887 49.9333 -16.701807 -16.743521 28.476524 -4e-06 -12.690593 1e-06 15.219591 -17.12035 3.188651 -0.105919 -1.513856 -4.275879 -5.039037 -5.612869 -2.953556 3e-06 -11.020523 -2e-06 -6.111295 -15.895334 -3.840469 -0.0 1e-06 -0.0 -10.283362 -5.680287 -4.341837 11.028287 -11.302402 -2.372633 -1.384266 -14.238579 -6.32012 -0.625437 -26.924187 -3.8276 -4.210416 -50.343563 -3.589349 -13.708514 -7.363473 -3.720938 18.14114 -14.052736 -3.242675 5e-06 -18.787262 -2e-06 -0.429711 -8.456043 2.555502 0.0 -1e-06 0.0 -15.923524 -20.094479 -5.473583 30.419193 -7.190823 1.735922 2e-06 -8.162922 -1e-06 -1.861899 -22.861467 -6.167942 -0.0 -1e-06 -2e-06 152.683914 -7.659528 -9.744116 140.850906 -0.104808 -0.154547 -118.572388 5.008916 -10.78403 -22.282726 1.790853 2.220474 -0.999999 0.0 0.0 -26.271877 -16.026773 7.786957 139.116272 -0.118668 -0.003781 -120.905334 16.045595 -12.528115 -21.141321 0.855354 1.617328 -1.000003 0.0 1e-06 
